HIERARCHY
ROOT joint_Root
{
	OFFSET 0.0 0.0 0.0
	CHANNELS 6 Xposition Yposition Zposition Zrotation Xrotation Yrotation 
	JOINT Hips
	{
		OFFSET -17.1583 93.1646 452.98
		CHANNELS 6 Xposition Yposition Zposition Zrotation Xrotation Yrotation 
		JOINT Spine
		{
			OFFSET 15.7357 0.0 0.0
			CHANNELS 6 Xposition Yposition Zposition Zrotation Xrotation Yrotation 
			JOINT Chest
			{
				OFFSET 8.98455 -0.406207 0.0
				CHANNELS 6 Xposition Yposition Zposition Zrotation Xrotation Yrotation 
				JOINT Neck
				{
					OFFSET 16.3773 0.0 0.0
					CHANNELS 6 Xposition Yposition Zposition Zrotation Xrotation Yrotation 
					JOINT Head
					{
						OFFSET 6.45672 0.0 0.0
						CHANNELS 6 Xposition Yposition Zposition Zrotation Xrotation Yrotation 
						End Site
						{
							OFFSET 0.0 0.0 0.0
						}
					}
				}
				JOINT Shoulder_L
				{
					OFFSET 12.9942 -0.242716 4.98039
					CHANNELS 6 Xposition Yposition Zposition Zrotation Xrotation Yrotation 
					JOINT UpperArm_L
					{
						OFFSET 5.34809 0.0 0.0
						CHANNELS 6 Xposition Yposition Zposition Zrotation Xrotation Yrotation 
						JOINT LowerArm_L
						{
							OFFSET 24.3286 1.87007e-05 0.0
							CHANNELS 6 Xposition Yposition Zposition Zrotation Xrotation Yrotation 
							JOINT Hand_L
							{
								OFFSET 22.2916 0.0 0.0
								CHANNELS 6 Xposition Yposition Zposition Zrotation Xrotation Yrotation 
								End Site
								{
									OFFSET 0.0 0.0 0.0
								}
							}
						}
					}
				}
				JOINT Shoulder_R
				{
					OFFSET 12.9945 -0.242716 -4.98039
					CHANNELS 6 Xposition Yposition Zposition Zrotation Xrotation Yrotation 
					JOINT UpperArm_R
					{
						OFFSET -5.34813 0.0 0.0
						CHANNELS 6 Xposition Yposition Zposition Zrotation Xrotation Yrotation 
						JOINT LowerArm_R
						{
							OFFSET -24.3289 0.000322201 0.0
							CHANNELS 6 Xposition Yposition Zposition Zrotation Xrotation Yrotation 
							JOINT Hand_R
							{
								OFFSET -22.2915 -0.000108084 0.0
								CHANNELS 6 Xposition Yposition Zposition Zrotation Xrotation Yrotation 
								End Site
								{
									OFFSET 0.0 0.0 0.0
								}
							}
						}
					}
				}
			}
		}
		JOINT UpperLeg_L
		{
			OFFSET -2.19248 -6.46944 0.0
			CHANNELS 6 Xposition Yposition Zposition Zrotation Xrotation Yrotation 
			JOINT LowerLeg_L
			{
				OFFSET 39.0811 0.0 -1.23785e-05
				CHANNELS 6 Xposition Yposition Zposition Zrotation Xrotation Yrotation 
				JOINT Foot_L
				{
					OFFSET 40.9854 0.0 -1.26872e-05
					CHANNELS 6 Xposition Yposition Zposition Zrotation Xrotation Yrotation 
					JOINT Toes_L
					{
						OFFSET 11.7543 0.0 0.0
						CHANNELS 6 Xposition Yposition Zposition Zrotation Xrotation Yrotation 
						End Site
						{
							OFFSET 0.0 0.0 0.0
						}
					}
				}
			}
		}
		JOINT UpperLeg_R
		{
			OFFSET -2.19251 6.46944 0.0
			CHANNELS 6 Xposition Yposition Zposition Zrotation Xrotation Yrotation 
			JOINT LowerLeg_R
			{
				OFFSET -39.0811 -0.00228153 -0.0401928
				CHANNELS 6 Xposition Yposition Zposition Zrotation Xrotation Yrotation 
				JOINT Foot_R
				{
					OFFSET -40.9854 0.0 0.0
					CHANNELS 6 Xposition Yposition Zposition Zrotation Xrotation Yrotation 
					JOINT Toes_R
					{
						OFFSET -11.7543 0.0 0.0
						CHANNELS 6 Xposition Yposition Zposition Zrotation Xrotation Yrotation 
						End Site
						{
							OFFSET 0.0 0.0 0.0
						}
					}
				}
			}
		}
	}
}
MOTION
Frames:	4
Frame Time:	0.0333333
0.000000 0.000000 0.000000 0.000000 0.000000 -0.000000 2.162950 92.707300 0.551745 88.933700 4.221940 5.748030 15.735700 0.000005 -0.000001 103.658000 86.352600 -104.120000 8.984550 -0.406207 -0.000000 -0.670195 1.756130 -0.912393 16.377300 -0.000001 -0.000001 6.977640 1.165540 -5.389600 6.456720 -0.000001 -0.000000 -9.252730 -2.165580 -1.847990 12.994200 -0.242716 4.980390 -93.914400 10.411300 -69.261200 5.348090 -0.000007 -0.000001 -68.765400 18.852100 -5.554640 24.328600 0.000019 0.000005 6.711360 26.118900 -14.965100 22.291600 -0.000001 0.000005 -4.338000 5.002760 7.260660 12.994500 -0.242716 -4.980390 87.021600 8.358410 -70.306300 -5.348130 -0.000001 -0.000004 -68.952100 33.818300 -4.171910 -24.328900 0.000322 -0.000009 0.753211 2.718680 -15.512400 -22.291500 -0.000108 -0.000004 0.155663 5.290920 0.325726 -2.192480 -6.469440 -0.000000 -175.600000 -5.544010 1.939700 39.081100 -0.000007 -0.000012 0.052296 -0.151054 19.096400 40.985400 -0.000006 -0.000013 2.154320 15.489600 -69.736300 11.754300 -0.000000 0.000003 -0.002145 0.198142 -8.537790 -2.192510 6.469440 -0.000001 173.128000 11.085100 -173.866000 -39.081100 -0.002282 -0.040193 -0.001813 0.020859 13.855900 -40.985400 0.000008 0.000006 -8.639450 5.995530 -67.929800 -11.754300 -0.000006 -0.000006 -0.011645 0.283208 -5.063860
0.000000 0.000000 0.000000 0.000000 0.000000 -0.000000 2.083870 92.695900 0.625966 88.946900 4.222650 5.772200 15.735700 0.000005 -0.000001 103.364000 86.369300 -103.743000 8.984550 -0.406207 -0.000000 -0.695433 1.706010 -0.748493 16.377300 -0.000001 -0.000001 6.995780 1.147770 -5.261570 6.456720 -0.000001 -0.000000 -9.319290 -2.183290 -1.663480 12.994200 -0.242716 4.980390 -93.939900 10.485700 -69.271400 5.348090 -0.000007 -0.000001 -68.231200 18.535200 -6.232080 24.328600 0.000019 0.000005 6.709350 26.204000 -14.917600 22.291600 -0.000001 0.000005 -4.545260 5.003980 7.234770 12.994500 -0.242716 -4.980390 87.029000 8.335940 -70.303100 -5.348130 -0.000001 -0.000004 -68.854600 33.785800 -4.322220 -24.328900 0.000322 -0.000009 0.734221 2.666250 -15.423400 -22.291500 -0.000108 -0.000004 0.284474 5.290060 0.349351 -2.192480 -6.469440 -0.000000 -175.545000 -5.516820 2.026040 39.081100 -0.000007 -0.000012 0.051875 -0.149974 19.080400 40.985400 -0.000006 -0.000013 2.095820 15.489600 -69.764400 11.754300 -0.000000 0.000003 -0.002138 0.198065 -8.540940 -2.192510 6.469440 -0.000001 173.183000 11.002200 -173.857000 -39.081100 -0.002282 -0.040193 -0.000823 0.016681 13.985900 -40.985400 0.000008 0.000006 -8.566510 5.916950 -68.067300 -11.754300 -0.000006 -0.000006 -0.011551 0.282548 -5.090910
0.000000 0.000000 0.000000 0.000000 0.000000 -0.000000 2.019870 92.693500 0.700498 88.982500 4.154950 5.740750 15.735700 0.000005 -0.000001 103.462000 86.387500 -103.741000 8.984550 -0.406207 -0.000000 -0.735303 1.702310 -0.547563 16.377300 -0.000001 -0.000001 6.963160 1.121760 -5.115650 6.456720 -0.000001 -0.000000 -9.435740 -2.227200 -1.541990 12.994200 -0.242716 4.980390 -93.998100 10.641200 -69.268600 5.348090 -0.000007 -0.000001 -67.476800 18.189100 -7.219550 24.328600 0.000019 0.000005 6.607750 26.537300 -14.535700 22.291600 -0.000001 0.000005 -4.705550 5.010080 7.104240 12.994500 -0.242716 -4.980390 87.053100 8.269400 -70.306800 -5.348130 -0.000001 -0.000004 -68.815800 33.692500 -4.448630 -24.328900 0.000322 -0.000009 0.766093 2.784740 -15.408500 -22.291500 -0.000108 -0.000004 0.287586 5.289140 0.374788 -2.192480 -6.469440 -0.000000 -175.525000 -5.551280 2.114170 39.081100 -0.000007 -0.000012 0.051935 -0.150948 18.986500 40.985400 -0.000006 -0.000013 2.041940 15.490600 -69.835200 11.754300 -0.000000 0.000003 -0.002092 0.197487 -8.564460 -2.192510 6.469440 -0.000001 173.206000 10.868400 -173.884000 -39.081100 -0.002282 -0.040193 -0.000310 0.014542 14.061400 -40.985400 0.000008 0.000006 -8.598640 5.870990 -68.219500 -11.754300 -0.000006 -0.000006 -0.011948 0.285329 -4.977010
0.000000 0.000000 0.000000 0.000000 0.000000 -0.000000 1.957200 92.676500 0.747860 89.042000 4.205620 5.763910 15.735700 0.000005 -0.000001 102.726000 86.369000 -102.900000 8.984550 -0.406207 -0.000000 -0.679984 1.612210 -0.337185 16.377300 -0.000001 -0.000001 6.764510 1.116690 -4.885840 6.456720 -0.000001 -0.000000 -9.544440 -2.192570 -1.364810 12.994200 -0.242716 4.980390 -94.092700 10.896500 -69.267600 5.348090 -0.000007 -0.000001 -66.487400 16.855700 -9.042550 24.328600 0.000019 0.000005 6.265220 28.397500 -12.999400 22.291600 -0.000001 0.000005 -5.580880 5.042990 6.387350 12.994500 -0.242716 -4.980390 87.111800 8.170360 -70.455200 -5.348130 -0.000001 -0.000004 -68.874700 33.423500 -4.457350 -24.328900 0.000322 -0.000009 0.735928 2.645550 -15.572900 -22.291500 -0.000108 -0.000004 0.248938 5.289700 0.359440 -2.192480 -6.469440 -0.000000 -175.500000 -5.639310 2.159780 39.081100 -0.000007 -0.000012 0.051954 -0.150868 19.002300 40.985400 -0.000006 -0.000013 2.022560 15.650100 -69.841400 11.754300 -0.000000 0.000003 -0.002096 0.197538 -8.562390 -2.192510 6.469440 -0.000001 173.207000 10.762100 -173.965000 -39.081100 -0.002282 -0.040193 0.001557 0.006942 14.339000 -40.985400 0.000008 0.000006 -8.609910 5.759250 -68.400900 -11.754300 -0.000006 -0.000006 -0.011615 0.283001 -5.072320
